<svg xmlns="http://www.w3.org/2000/svg" viewBox="0 0 200 200">
  <defs>
    <style>
      .cls-1 {
        fill: #424242;
      }

      .cls-2, .cls-3 {
        fill: #fafafa;
      }

      .cls-3 {
        fill-rule: evenodd;
      }
    </style>
  </defs>
  <g id="Layer_2" data-name="Layer 2">
    <rect class="cls-1" width="200" height="200"/>
  </g>
  <g id="Layer_1" data-name="Layer 1">
    <rect class="cls-2" x="127.5" y="66.75" width="42" height="18" rx="2"/>
    <path class="cls-3" d="M145.5,90.75h-16a2,2,0,0,0-2,2v38a2,2,0,0,0,2,2h14a2,2,0,0,0,2-2v-20a2,2,0,0,1,2-2h20a2,2,0,0,0,2-2v-14a2,2,0,0,0-2-2Z"/>
    <rect class="cls-2" x="31.5" y="66.75" width="42" height="18" rx="2"/>
    <path class="cls-3" d="M55.5,90.75h-22a2,2,0,0,0-2,2v14a2,2,0,0,0,2,2h20a2,2,0,0,1,2,2v20a2,2,0,0,0,2,2h14a2,2,0,0,0,2-2v-38a2,2,0,0,0-2-2Z"/>
    <rect class="cls-2" x="31.5" y="114.75" width="18" height="18" rx="2"/>
    <rect class="cls-2" x="79.5" y="114.75" width="42" height="18" rx="2"/>
    <path class="cls-3" d="M97.5,66.75h-16a2,2,0,0,0-2,2v38a2,2,0,0,0,2,2h14a2,2,0,0,0,2-2v-20a2,2,0,0,1,2-2h20a2,2,0,0,0,2-2v-14a2,2,0,0,0-2-2Z"/>
    <rect class="cls-2" x="103.5" y="90.75" width="18" height="18" rx="2"/>
  </g>
</svg>
