<svg width="138" height="66" viewBox="0 0 138 66" fill="none" xmlns="http://www.w3.org/2000/svg">
<rect x="96" width="42" height="18" rx="2" fill="#FAFAFA"/>
<path fill-rule="evenodd" clip-rule="evenodd" d="M114 24H98C96.8954 24 96 24.8954 96 26V64C96 65.1046 96.8954 66 98 66H112C113.105 66 114 65.1046 114 64V44C114 42.8954 114.895 42 116 42H136C137.105 42 138 41.1046 138 40V26C138 24.8954 137.105 24 136 24H114Z" fill="#FAFAFA"/>
<rect width="42" height="18" rx="2" fill="#FAFAFA"/>
<path fill-rule="evenodd" clip-rule="evenodd" d="M24 24H2C0.895431 24 0 24.8954 0 26V40C0 41.1046 0.89543 42 2 42H22C23.1046 42 24 42.8954 24 44V64C24 65.1046 24.8954 66 26 66H40C41.1046 66 42 65.1046 42 64V26C42 24.8954 41.1046 24 40 24H24Z" fill="#FAFAFA"/>
<rect y="48" width="18" height="18" rx="2" fill="#FAFAFA"/>
<rect x="48" y="48" width="42" height="18" rx="2" fill="#FAFAFA"/>
<path fill-rule="evenodd" clip-rule="evenodd" d="M66 0H50C48.8954 0 48 0.89543 48 2V40C48 41.1046 48.8954 42 50 42H64C65.1046 42 66 41.1046 66 40V20C66 18.8954 66.8954 18 68 18H88C89.1046 18 90 17.1046 90 16V2C90 0.895431 89.1046 0 88 0H66Z" fill="#FAFAFA"/>
<rect x="72" y="24" width="18" height="18" rx="2" fill="#FAFAFA"/>
</svg>
